<svg width="800" height="800" viewBox="0 0 800 800" fill="none" xmlns="http://www.w3.org/2000/svg">
<g clip-path="url(#clip0_74_84)">
<path d="M800 400C800 179.096 620.904 0 400 0C179.096 0 0 179.096 0 400C0 620.904 179.096 800 400 800C620.904 800 800 620.904 800 400ZM391.058 575.692C388.188 572.846 385.908 569.463 384.346 565.736C382.785 562.008 381.973 558.01 381.956 553.969C381.94 549.927 382.721 545.922 384.252 542.183C385.784 538.443 388.038 535.042 390.885 532.173L491.5 430.769H234.615C226.455 430.769 218.629 427.527 212.858 421.757C207.088 415.987 203.846 408.16 203.846 400C203.846 391.839 207.088 384.013 212.858 378.243C218.629 372.473 226.455 369.231 234.615 369.231H491.5L390.885 267.827C388.038 264.956 385.786 261.552 384.255 257.81C382.724 254.068 381.946 250.061 381.964 246.018C381.982 241.975 382.795 237.975 384.359 234.247C385.923 230.518 388.206 227.135 391.077 224.288C393.948 221.442 397.352 219.19 401.094 217.659C404.836 216.128 408.843 215.35 412.886 215.368C421.051 215.404 428.867 218.682 434.615 224.481L587.288 378.327C593.008 384.09 596.217 391.881 596.217 400C596.217 408.119 593.008 415.91 587.288 421.673L434.615 575.519C431.769 578.394 428.383 580.68 424.652 582.245C420.921 583.81 416.918 584.624 412.872 584.64C408.827 584.656 404.817 583.874 401.074 582.338C397.331 580.803 393.927 578.545 391.058 575.692Z" fill="#DE802B"/>
</g>
<defs>
<clipPath id="clip0_74_84">
<rect width="800" height="800" fill="white"/>
</clipPath>
</defs>
</svg>
