<svg width="800" height="800" viewBox="0 0 800 800" fill="none" xmlns="http://www.w3.org/2000/svg">
<g clip-path="url(#clip0_74_8)">
<path d="M400 172C371.717 172 344.07 180.387 320.554 196.1C297.037 211.813 278.709 234.146 267.885 260.276C257.062 286.406 254.23 315.159 259.748 342.898C265.265 370.637 278.885 396.117 298.884 416.116C318.883 436.115 344.363 449.735 372.102 455.252C399.841 460.77 428.594 457.938 454.724 447.115C480.854 436.291 503.187 417.963 518.9 394.446C534.613 370.93 543 343.283 543 315C543 277.074 527.934 240.701 501.116 213.884C474.299 187.066 437.926 172 400 172Z" fill="#DE802B"/>
<path d="M400 0C320.888 0 243.552 23.4596 177.772 67.4121C111.992 111.365 60.7234 173.836 30.4484 246.927C0.173313 320.017 -7.74802 400.444 7.68607 478.036C23.1202 555.628 61.2164 626.902 117.157 682.843C173.098 738.784 244.372 776.88 321.964 792.314C399.556 807.748 479.983 799.827 553.073 769.552C626.164 739.277 688.635 688.008 732.588 622.228C776.54 556.448 800 479.112 800 400C800 293.913 757.857 192.172 682.843 117.157C607.828 42.1427 506.087 0 400 0ZM628.571 655.143C628.046 617.602 612.763 581.778 586.029 555.418C559.295 529.058 523.258 514.282 485.714 514.286H314.286C276.742 514.282 240.705 529.058 213.971 555.418C187.237 581.778 171.954 617.602 171.429 655.143C119.673 608.851 83.1933 547.936 66.816 480.458C50.4386 412.98 54.9358 342.119 79.7125 277.253C104.489 212.387 148.378 156.572 205.57 117.195C262.762 77.8185 330.563 56.7351 400 56.7351C469.437 56.7351 537.238 77.8185 594.43 117.195C651.623 156.572 695.511 212.387 720.288 277.253C745.064 342.119 749.562 412.98 733.184 480.458C716.807 547.936 680.327 608.851 628.571 655.143Z" fill="#DE802B"/>
</g>
<defs>
<clipPath id="clip0_74_8">
<rect width="800" height="800" fill="white"/>
</clipPath>
</defs>
</svg>
