<svg width="800" height="800" viewBox="0 0 800 800" fill="none" xmlns="http://www.w3.org/2000/svg">
<g clip-path="url(#clip0_74_34)">
<path d="M0 400C0 620.904 179.096 800 400 800C620.904 800 800 620.904 800 400C800 179.096 620.904 0 400 0C179.096 0 0 179.096 0 400ZM408.942 224.308C411.812 227.154 414.092 230.537 415.654 234.264C417.215 237.992 418.027 241.99 418.044 246.031C418.06 250.073 417.279 254.078 415.747 257.817C414.216 261.557 411.962 264.958 409.115 267.827L308.5 369.231H565.385C573.545 369.231 581.371 372.473 587.142 378.243C592.912 384.013 596.154 391.839 596.154 400C596.154 408.16 592.912 415.987 587.142 421.757C581.371 427.527 573.545 430.769 565.385 430.769H308.5L409.115 532.173C411.962 535.044 414.214 538.448 415.745 542.19C417.276 545.932 418.054 549.939 418.036 553.982C418.018 558.025 417.204 562.025 415.641 565.753C414.077 569.482 411.794 572.865 408.923 575.712C406.052 578.558 402.648 580.81 398.906 582.341C395.164 583.872 391.157 584.65 387.114 584.633C383.071 584.615 379.071 583.801 375.343 582.237C371.615 580.673 368.231 578.391 365.385 575.519L212.712 421.673C206.992 415.91 203.783 408.119 203.783 400C203.783 391.881 206.992 384.09 212.712 378.327L365.385 224.481C368.231 221.606 371.617 219.32 375.348 217.755C379.079 216.19 383.082 215.376 387.128 215.36C391.173 215.344 395.183 216.126 398.926 217.662C402.669 219.197 406.073 221.455 408.942 224.308Z" fill="#DE802B"/>
</g>
<defs>
<clipPath id="clip0_74_34">
<rect width="800" height="800" fill="white"/>
</clipPath>
</defs>
</svg>
