<svg width="800" height="800" viewBox="0 0 800 800" fill="none" xmlns="http://www.w3.org/2000/svg">
<g clip-path="url(#clip0_74_77)">
<path d="M142.878 800C135.517 799.977 128.285 797.987 121.88 794.222C115.261 790.363 109.749 784.749 105.909 777.955C102.068 771.161 100.038 763.431 100.025 755.556V103.556C99.4455 76.903 109.017 51.0873 126.664 31.7033C144.311 12.3193 168.613 0.928645 194.303 0H605.697C631.387 0.928645 655.689 12.3193 673.336 31.7033C690.983 51.0873 700.554 76.903 699.975 103.556V755.556C699.93 763.312 697.928 770.921 694.17 777.626C690.411 784.331 685.025 789.9 678.548 793.778C672.034 797.679 664.644 799.732 657.122 799.732C649.599 799.732 642.209 797.679 635.695 793.778L392.715 651.111L164.305 793.333C157.858 797.484 150.464 799.784 142.878 800Z" fill="#9CA3AF"/>
</g>
<defs>
<clipPath id="clip0_74_77">
<rect width="800" height="800" fill="white"/>
</clipPath>
</defs>
</svg>
