<svg width="1023" height="306" viewBox="0 0 1023 306" fill="none" xmlns="http://www.w3.org/2000/svg">
<path d="M179.067 306C142.581 306 110.887 299.872 83.9852 287.615C57.2512 275.358 36.5701 257.896 21.9421 235.23C7.31402 212.395 0 185.195 0 153.63C0 122.568 7.39809 95.5358 22.1943 72.5333C37.1586 49.5309 58.0918 31.7333 84.994 19.1407C111.896 6.38025 143.422 0 179.572 0C216.226 0 248.004 6.1284 274.906 18.3852C301.809 30.4741 322.574 47.9358 337.202 70.7704C351.83 93.437 359.144 120.553 359.144 152.119C359.144 183.18 351.746 210.296 336.949 233.467C322.153 256.469 301.22 274.351 274.15 287.111C247.248 299.704 215.554 306 179.067 306ZM177.554 298.444C206.138 298.444 230.854 292.484 251.703 280.563C272.552 268.474 288.61 251.516 299.875 229.689C311.308 207.862 317.025 182.173 317.025 152.622C317.025 122.568 311.14 96.7111 299.371 75.0518C287.769 53.3926 271.712 36.6864 251.199 24.9333C230.854 13.1802 207.567 7.3037 181.337 7.3037C153.09 7.3037 128.458 13.3481 107.44 25.437C86.5913 37.358 70.366 54.2321 58.7644 76.0593C47.331 97.8864 41.6143 123.575 41.6143 153.126C41.6143 183.18 47.4151 209.121 59.0166 230.948C70.6182 252.607 86.6754 269.314 107.188 281.067C127.701 292.652 151.156 298.444 177.554 298.444Z" fill="#DE802B"/>
<path d="M395.462 300.207V296.304C402.86 296.388 407.946 295.254 410.72 292.904C413.579 290.553 415.008 286.691 415.008 281.319V215.207C415.008 208.995 413.537 204.546 410.594 201.859C407.652 199.089 402.608 197.452 395.462 196.948V193.044C397.9 193.38 400.38 193.59 402.902 193.674C405.508 193.674 408.114 193.674 410.72 193.674C414.756 193.674 418.707 193.464 422.574 193.044C426.525 192.625 430.266 191.869 433.797 190.778V213.444C437.244 205.385 441.994 199.509 448.047 195.815C454.1 192.037 460.783 190.148 468.098 190.148C478.522 190.148 486.551 194.22 492.183 202.363C497.816 210.422 500.632 222.091 500.632 237.37V281.319C500.632 286.943 502.019 290.889 504.794 293.156C507.652 295.338 512.78 296.388 520.178 296.304V300.207C517.404 300.039 513.243 299.872 507.694 299.704C502.146 299.452 496.723 299.326 491.427 299.326C486.551 299.326 481.843 299.452 477.303 299.704C472.763 299.872 469.317 300.039 466.963 300.207V296.304C472.763 296.388 476.673 295.338 478.69 293.156C480.792 290.889 481.843 286.943 481.843 281.319V227.17C481.843 216.677 480.035 208.995 476.42 204.126C472.889 199.257 467.551 196.822 460.405 196.822C449.392 196.822 440.523 205.385 433.797 222.511V281.319C433.797 286.691 434.848 290.553 436.95 292.904C439.136 295.254 443.045 296.388 448.678 296.304V300.207C445.483 300.039 441.784 299.872 437.58 299.704C433.377 299.452 428.921 299.326 424.213 299.326C419.085 299.326 413.999 299.41 408.955 299.578C403.911 299.662 399.413 299.872 395.462 300.207Z" fill="#DE802B"/>
<path d="M545.932 300.207V292.346C561.846 291.5 573.275 289.556 580.216 286.513C587.158 283.47 591.39 279.412 592.914 274.34C594.607 269.268 595.454 263.266 595.454 256.334V47.3674C595.454 37.5615 594.268 30.3761 591.898 25.8113C589.697 21.0774 585.041 17.7806 577.93 15.9209C570.989 14.0611 560.323 12.5395 545.932 11.3561V3.74805C551.349 3.91711 559.815 4.17071 571.328 4.50885C582.84 4.84698 597.316 5.01605 614.755 5.01605C634.394 5.01605 650.817 4.93152 664.023 4.76245C677.398 4.42431 687.556 4.08618 694.498 3.74805V11.3561C677.398 12.5395 664.531 14.3147 655.896 16.6817C647.431 18.8796 641.759 22.3454 638.881 27.0793C636.002 31.8132 634.563 38.5759 634.563 47.3674V256.334C634.563 263.942 635.325 270.367 636.849 275.608C638.542 280.68 642.521 284.569 648.785 287.274C655.049 289.81 665.292 291.078 679.514 291.078H696.275C713.206 291.078 727.936 290.317 740.464 288.795C752.993 287.105 763.829 283.47 772.971 277.891C782.283 272.142 790.579 263.266 797.859 251.262C805.139 239.259 812.081 222.775 818.684 201.81H826.556C823.848 221.253 821.816 239.005 820.461 255.066C819.276 271.128 818.938 286.175 819.446 300.207C804.039 299.869 786.6 299.616 767.13 299.447C747.829 299.108 725.057 298.939 698.815 298.939C665.123 298.939 635.41 299.108 609.675 299.447C584.11 299.616 562.862 299.869 545.932 300.207Z" fill="#DE802B"/>
<path d="M846.707 300.207V296.304C852.928 296.136 857.258 295.044 859.695 293.03C862.218 291.015 863.479 287.111 863.479 281.319V215.207C863.479 210.002 862.218 205.889 859.695 202.867C857.173 199.76 852.844 197.788 846.707 196.948V193.044C849.397 193.296 851.877 193.464 854.147 193.548C856.501 193.632 858.729 193.674 860.83 193.674C869.406 193.674 876.551 192.709 882.268 190.778V281.319C882.268 287.111 883.529 291.015 886.051 293.03C888.573 295.044 892.987 296.136 899.292 296.304V300.207C896.77 300.039 892.987 299.872 887.943 299.704C882.983 299.452 878.023 299.326 873.062 299.326C868.102 299.326 863.1 299.452 858.056 299.704C853.012 299.872 849.229 300.039 846.707 300.207ZM873.945 167.607C870.582 167.607 867.724 166.306 865.37 163.704C863.016 161.017 861.839 157.911 861.839 154.385C861.839 150.775 863.016 147.711 865.37 145.193C867.724 142.674 870.582 141.415 873.945 141.415C877.14 141.415 879.914 142.674 882.268 145.193C884.622 147.711 885.799 150.775 885.799 154.385C885.799 157.911 884.622 161.017 882.268 163.704C879.914 166.306 877.14 167.607 873.945 167.607Z" fill="#DE802B"/>
<path d="M921.991 303.859L919.343 300.711C921.36 297.605 922.705 294.667 923.378 291.896C924.135 289.126 924.513 285.6 924.513 281.319V161.563C924.513 156.358 923 152.202 919.973 149.096C917.031 145.906 911.524 143.975 903.454 143.304V139.4C905.807 139.652 908.33 139.82 911.02 139.904C913.71 139.988 916.316 140.03 918.838 140.03C923.546 140.03 927.918 139.82 931.953 139.4C936.072 138.98 939.813 138.225 943.176 137.133V211.178C946.455 204.462 951.289 199.299 957.678 195.689C964.068 191.995 971.171 190.148 978.99 190.148C987.817 190.148 995.509 192.583 1002.07 197.452C1008.71 202.321 1013.84 208.911 1017.45 217.222C1021.15 225.449 1023 234.726 1023 245.052C1023 256.049 1020.94 265.956 1016.82 274.77C1012.79 283.501 1007.07 290.427 999.671 295.548C992.357 300.585 983.824 303.104 974.072 303.104C966.674 303.104 960.074 301.005 954.273 296.807C948.557 292.526 944.437 287.489 941.915 281.696C938.132 284.97 934.433 288.622 930.818 292.652C927.287 296.681 924.345 300.417 921.991 303.859ZM971.424 196.696C965.959 196.696 960.579 198.669 955.282 202.615C949.986 206.477 945.951 212.521 943.176 220.748V275.778C945.446 281.822 948.893 286.943 953.517 291.141C958.225 295.338 963.353 297.437 968.901 297.437C979.662 297.437 987.985 293.156 993.87 284.593C999.755 276.03 1002.7 263.857 1002.7 248.074C1002.7 232.795 999.923 220.412 994.374 210.926C988.91 201.439 981.26 196.696 971.424 196.696Z" fill="#DE802B"/>
</svg>
