<svg width="2674" height="800" viewBox="0 0 2674 800" fill="none" xmlns="http://www.w3.org/2000/svg">
<g clip-path="url(#clip0_74_94)">
<path d="M467.872 800C372.54 800 289.729 783.979 219.439 751.935C149.588 719.89 95.5515 674.238 57.331 614.98C19.1103 555.281 0 484.17 0 401.647C0 320.439 19.33 249.767 57.99 189.63C97.0892 129.493 151.784 82.9629 222.075 50.041C292.366 16.6804 374.738 0 469.192 0C564.962 0 647.993 16.022 718.283 48.0659C788.576 79.6709 842.832 125.322 881.052 185.021C919.273 244.28 938.383 315.171 938.383 397.697C938.383 478.902 919.053 549.793 880.391 610.371C841.732 670.507 787.037 717.258 716.308 750.617C646.018 783.54 563.207 800 467.872 800ZM463.919 780.246C538.604 780.246 603.183 764.664 657.658 733.498C712.133 701.893 754.09 657.558 783.523 600.494C813.396 543.43 828.333 476.269 828.333 399.012C828.333 320.439 812.957 252.839 782.206 196.214C751.892 139.589 709.938 95.9122 656.341 65.1851C603.183 34.458 542.338 19.0946 473.803 19.0946C399.999 19.0946 335.639 34.897 280.723 66.502C226.249 97.668 183.855 141.783 153.542 198.848C123.668 255.912 108.731 323.072 108.731 400.329C108.731 478.902 123.888 546.722 154.2 603.786C184.514 660.41 226.468 704.089 280.064 734.816C333.661 765.103 394.945 780.246 463.919 780.246Z" fill="#DE802B"/>
<path d="M1032.48 784.314V774.115C1051.86 774.335 1065.19 771.372 1072.46 765.231C1079.95 759.088 1083.69 748.997 1083.69 734.96V562.211C1083.69 545.979 1079.84 534.354 1072.13 527.333C1064.42 520.095 1051.2 515.817 1032.48 514.5V504.299C1038.87 505.177 1045.37 505.726 1051.97 505.945C1058.8 505.945 1065.63 505.945 1072.46 505.945C1083.03 505.945 1093.38 505.397 1103.51 504.299C1113.86 503.204 1123.66 501.229 1132.91 498.378V557.604C1141.94 536.546 1154.39 521.192 1170.25 511.54C1186.1 501.668 1203.61 496.732 1222.78 496.732C1250.09 496.732 1271.12 507.372 1285.88 528.649C1300.63 549.707 1308.01 580.198 1308.01 620.122V734.96C1308.01 749.655 1311.64 759.966 1318.91 765.89C1326.4 771.591 1339.84 774.335 1359.22 774.115V784.314C1351.95 783.875 1341.05 783.438 1326.51 782.999C1311.98 782.341 1297.77 782.012 1283.89 782.012C1271.12 782.012 1258.79 782.341 1246.89 782.999C1235 783.438 1225.97 783.875 1219.8 784.314V774.115C1235 774.335 1245.24 771.591 1250.53 765.89C1256.03 759.966 1258.79 749.655 1258.79 734.96V593.47C1258.79 566.052 1254.05 545.979 1244.58 533.256C1235.33 520.534 1221.34 514.171 1202.62 514.171C1173.77 514.171 1150.53 536.546 1132.91 581.296V734.96C1132.91 748.997 1135.67 759.088 1141.17 765.231C1146.9 771.372 1157.14 774.335 1171.9 774.115V784.314C1163.53 783.875 1153.84 783.438 1142.82 782.999C1131.81 782.341 1120.14 782.012 1107.81 782.012C1094.37 782.012 1081.05 782.231 1067.83 782.67C1054.62 782.89 1042.83 783.438 1032.48 784.314Z" fill="#DE802B"/>
<path d="M1427.18 784.314V763.794C1468.83 761.586 1498.75 756.511 1516.91 748.568C1535.08 740.625 1546.16 730.032 1550.15 716.792C1554.58 703.553 1556.8 687.886 1556.8 669.791V124.318C1556.8 98.7218 1553.69 79.9656 1547.49 68.0499C1541.73 55.6929 1529.54 47.0871 1510.93 42.2327C1492.76 37.378 1464.85 33.4061 1427.18 30.3171V10.4575C1441.36 10.8988 1463.52 11.5608 1493.65 12.4435C1523.78 13.3261 1561.67 13.7674 1607.31 13.7674C1658.72 13.7674 1701.7 13.5468 1736.27 13.1054C1771.28 12.2228 1797.86 11.3402 1816.03 10.4575V30.3171C1771.28 33.4061 1737.6 38.04 1715 44.2186C1692.84 49.9559 1677.99 59.0028 1670.46 71.3598C1662.93 83.7169 1659.16 101.37 1659.16 124.318V669.791C1659.16 689.65 1661.15 706.421 1665.14 720.102C1669.57 733.342 1679.99 743.493 1696.38 750.554C1712.78 757.174 1739.59 760.484 1776.81 760.484H1820.68C1865 760.484 1903.55 758.498 1936.34 754.525C1969.14 750.113 1997.5 740.625 2021.43 726.062C2045.8 711.055 2067.51 687.885 2086.57 656.551C2105.62 625.219 2123.79 582.191 2141.08 527.465H2161.68C2154.59 578.218 2149.27 624.556 2145.73 666.481C2142.62 708.408 2141.74 747.686 2143.07 784.314C2102.74 783.431 2057.1 782.771 2006.14 782.33C1955.62 781.445 1896.02 781.004 1827.33 781.004C1739.15 781.004 1661.38 781.445 1594.02 782.33C1527.11 782.771 1471.49 783.431 1427.18 784.314Z" fill="#DE802B"/>
<path d="M2213.96 784.314V774.096C2230.04 773.657 2241.23 770.798 2247.53 765.526C2254.05 760.251 2257.31 750.031 2257.31 734.869V561.8C2257.31 548.175 2254.05 537.408 2247.53 529.497C2241.01 521.363 2229.82 516.201 2213.96 514.002V503.782C2220.91 504.442 2227.32 504.882 2233.19 505.101C2239.27 505.321 2245.03 505.431 2250.46 505.431C2272.63 505.431 2291.1 502.905 2305.88 497.85V734.869C2305.88 750.031 2309.13 760.251 2315.65 765.526C2322.17 770.798 2333.58 773.657 2349.88 774.096V784.314C2343.36 783.874 2333.58 783.437 2320.54 782.997C2307.72 782.337 2294.9 782.007 2282.08 782.007C2269.26 782.007 2256.33 782.337 2243.29 782.997C2230.25 783.437 2220.48 783.874 2213.96 784.314ZM2284.36 437.193C2275.67 437.193 2268.28 433.787 2262.2 426.976C2256.11 419.942 2253.07 411.811 2253.07 402.58C2253.07 393.13 2256.11 385.109 2262.2 378.518C2268.28 371.923 2275.67 368.627 2284.36 368.627C2292.62 368.627 2299.79 371.923 2305.88 378.518C2311.96 385.109 2315 393.13 2315 402.58C2315 411.811 2311.96 419.942 2305.88 426.976C2299.79 433.787 2292.62 437.193 2284.36 437.193Z" fill="#DE802B"/>
<path d="M2408.97 794.771L2402.02 786.528C2407.32 778.394 2410.84 770.7 2412.61 763.444C2414.6 756.19 2415.59 746.957 2415.59 735.746V422.144C2415.59 408.514 2411.62 397.631 2403.68 389.497C2395.96 381.144 2381.51 376.087 2360.33 374.33V364.106C2366.51 364.766 2373.13 365.206 2380.19 365.426C2387.24 365.646 2394.08 365.756 2400.7 365.756C2413.05 365.756 2424.52 365.206 2435.11 364.106C2445.92 363.007 2455.73 361.03 2464.56 358.17V552.07C2473.16 534.483 2485.84 520.963 2502.61 511.509C2519.37 501.836 2538.01 496.999 2558.53 496.999C2581.69 496.999 2601.87 503.375 2619.08 516.126C2636.51 528.876 2649.97 546.133 2659.44 567.897C2669.15 589.441 2674 613.734 2674 640.775C2674 669.572 2668.59 695.516 2657.78 718.597C2647.21 741.46 2632.2 759.597 2612.79 773.007C2593.6 786.198 2571.21 792.794 2545.62 792.794C2526.21 792.794 2508.89 787.298 2493.67 776.304C2478.68 765.094 2467.87 751.904 2461.25 736.734C2451.32 745.307 2441.62 754.87 2432.13 765.424C2422.87 775.974 2415.15 785.758 2408.97 794.771ZM2538.67 514.146C2524.34 514.146 2510.22 519.313 2496.32 529.646C2482.42 539.759 2471.84 555.587 2464.56 577.13V721.236C2470.51 737.064 2479.56 750.474 2491.69 761.467C2504.04 772.457 2517.5 777.954 2532.05 777.954C2560.29 777.954 2582.13 766.744 2597.57 744.32C2613.01 721.896 2620.74 690.019 2620.74 648.688C2620.74 608.678 2613.45 576.251 2598.89 551.41C2584.55 526.566 2564.48 514.146 2538.67 514.146Z" fill="#DE802B"/>
</g>
<defs>
<clipPath id="clip0_74_94">
<rect width="2674" height="800" fill="white"/>
</clipPath>
</defs>
</svg>
